<mxfile host="app.diagrams.net" modified="2024-01-23T13:15:51.412Z" agent="Mozilla/5.0 (Windows NT 10.0; Win64; x64) AppleWebKit/537.36 (KHTML, like Gecko) Chrome/117.0.0.0 Safari/537.36" etag="aboiYt6kIRtB4gHLQ2z6" version="22.1.21" type="github">
  <diagram name="Página-1" id="mntp2XPz88s3QTPtryPr">
    <mxGraphModel dx="794" dy="1601" grid="1" gridSize="10" guides="1" tooltips="1" connect="1" arrows="1" fold="1" page="1" pageScale="1" pageWidth="827" pageHeight="1169" math="0" shadow="0">
      <root>
        <mxCell id="0" />
        <mxCell id="1" parent="0" />
        <mxCell id="S5lMf9-8DYOt2VYxy1gL-1" value="&lt;font color=&quot;#6666ff&quot; style=&quot;font-size: 9px;&quot;&gt;Usuário &lt;br style=&quot;font-size: 9px;&quot;&gt;de Internet&lt;/font&gt;" style="sketch=0;outlineConnect=0;fillColor=#6666FF;strokeColor=#001DBC;dashed=0;verticalLabelPosition=bottom;verticalAlign=top;align=center;html=1;fontSize=9;fontStyle=1;aspect=fixed;pointerEvents=1;shape=mxgraph.aws4.users;fontColor=#ffffff;" vertex="1" parent="1">
          <mxGeometry x="60" y="-370" width="30" height="30" as="geometry" />
        </mxCell>
        <mxCell id="S5lMf9-8DYOt2VYxy1gL-3" value="&lt;font style=&quot;font-size: 8px;&quot;&gt;AWS Account&lt;/font&gt;" style="points=[[0,0],[0.25,0],[0.5,0],[0.75,0],[1,0],[1,0.25],[1,0.5],[1,0.75],[1,1],[0.75,1],[0.5,1],[0.25,1],[0,1],[0,0.75],[0,0.5],[0,0.25]];outlineConnect=0;gradientColor=none;html=1;whiteSpace=wrap;fontSize=12;fontStyle=0;container=1;pointerEvents=0;collapsible=0;recursiveResize=0;shape=mxgraph.aws4.group;grIcon=mxgraph.aws4.group_account;strokeColor=#CD2264;fillColor=none;verticalAlign=top;align=left;spacingLeft=30;fontColor=#CD2264;dashed=0;" vertex="1" parent="1">
          <mxGeometry x="160" y="-400" width="630" height="390" as="geometry" />
        </mxCell>
        <mxCell id="S5lMf9-8DYOt2VYxy1gL-10" value="&lt;font style=&quot;font-size: 7px;&quot;&gt;Region - São Paulo&lt;/font&gt;" style="sketch=0;outlineConnect=0;gradientColor=none;html=1;whiteSpace=wrap;fontSize=12;fontStyle=0;shape=mxgraph.aws4.group;grIcon=mxgraph.aws4.group_region;strokeColor=#0066CC;fillColor=none;verticalAlign=top;align=left;spacingLeft=30;fontColor=#B6BABF;dashed=1;" vertex="1" parent="1">
          <mxGeometry x="280" y="-390" width="500" height="370" as="geometry" />
        </mxCell>
        <mxCell id="S5lMf9-8DYOt2VYxy1gL-22" value="VPC" style="sketch=0;outlineConnect=0;gradientColor=none;html=1;whiteSpace=wrap;fontSize=8;fontStyle=0;shape=mxgraph.aws4.group;grIcon=mxgraph.aws4.group_vpc;strokeColor=#00CC00;fillColor=none;verticalAlign=top;align=left;spacingLeft=30;fontColor=#879196;dashed=0;fixDash=0;snapToPoint=0;" vertex="1" parent="1">
          <mxGeometry x="390" y="-380" width="330" height="350" as="geometry" />
        </mxCell>
        <mxCell id="S5lMf9-8DYOt2VYxy1gL-23" value="&lt;font style=&quot;font-size: 8px;&quot;&gt;Ec2 Auto Scaling&lt;/font&gt;" style="points=[[0,0],[0.25,0],[0.5,0],[0.75,0],[1,0],[1,0.25],[1,0.5],[1,0.75],[1,1],[0.75,1],[0.5,1],[0.25,1],[0,1],[0,0.75],[0,0.5],[0,0.25]];outlineConnect=0;gradientColor=none;html=1;whiteSpace=wrap;fontSize=12;fontStyle=0;container=1;pointerEvents=0;collapsible=0;recursiveResize=0;shape=mxgraph.aws4.groupCenter;grIcon=mxgraph.aws4.group_auto_scaling_group;grStroke=1;strokeColor=#D86613;fillColor=none;verticalAlign=top;align=center;fontColor=#D86613;dashed=1;spacingTop=25;snapToPoint=0;fixDash=0;dropTarget=0;deletable=1;cloneable=1;rotatable=1;resizable=1;movable=1;editable=1;locked=0;connectable=1;allowArrows=1;expand=1;perimeter=backbonePerimeter;fillOpacity=91;shadow=0;" vertex="1" parent="1">
          <mxGeometry x="470" y="-370" width="240" height="330" as="geometry" />
        </mxCell>
      </root>
    </mxGraphModel>
  </diagram>
</mxfile>
